<svg width="25" height="25" viewBox="0 0 25 25" fill="none" xmlns="http://www.w3.org/2000/svg">
<g clip-path="url(#clip0_10_14)">
<path d="M12.5 1.38889C10.337 1.39069 8.2625 2.24839 6.72974 3.77465C5.19698 5.3009 4.33047 7.37169 4.31946 9.53472C4.31946 12.7778 6.1389 15.4931 7.47224 17.4722L7.71529 17.8333C9.04187 19.756 10.465 21.6102 11.9792 23.3889L12.507 24.0069L13.0347 23.3889C14.5487 21.6101 15.9718 19.7558 17.2986 17.8333L17.5417 17.4653C18.8681 15.4861 20.6875 12.7778 20.6875 9.53472C20.6765 7.37049 19.809 5.29865 18.2748 3.7722C16.7405 2.24574 14.6643 1.38886 12.5 1.38889ZM12.5 13.1944C11.599 13.1944 10.7182 12.9273 9.96908 12.4267C9.21993 11.9261 8.63603 11.2146 8.29123 10.3822C7.94643 9.5498 7.85622 8.63383 8.03199 7.75014C8.20777 6.86645 8.64164 6.05473 9.27875 5.41762C9.91586 4.78052 10.7276 4.34664 11.6113 4.17086C12.495 3.99509 13.4109 4.0853 14.2434 4.4301C15.0758 4.7749 15.7872 5.3588 16.2878 6.10795C16.7884 6.85711 17.0556 7.73788 17.0556 8.63889C17.0556 9.84709 16.5756 11.0058 15.7213 11.8601C14.8669 12.7145 13.7082 13.1944 12.5 13.1944Z" fill="#1E92E7"/>
<path d="M12.5 11.2292C13.9306 11.2292 15.0903 10.0695 15.0903 8.63889C15.0903 7.20832 13.9306 6.04861 12.5 6.04861C11.0694 6.04861 9.90973 7.20832 9.90973 8.63889C9.90973 10.0695 11.0694 11.2292 12.5 11.2292Z" fill="#1E92E7"/>
</g>
<defs>
<clipPath id="clip0_10_14">
<rect width="25" height="25" fill="white"/>
</clipPath>
</defs>
</svg>
