<svg width="30" height="30" viewBox="0 0 30 30" fill="none" xmlns="http://www.w3.org/2000/svg">
<circle cx="15" cy="15" r="15" fill="#1E92E7"/>
<path d="M10 8.75C9.33696 8.75 8.70107 9.01339 8.23223 9.48223C7.76339 9.95107 7.5 10.587 7.5 11.25V11.5013L15 15.54L22.5 11.5025V11.25C22.5 10.587 22.2366 9.95107 21.7678 9.48223C21.2989 9.01339 20.663 8.75 20 8.75H10ZM22.5 12.9212L15.2963 16.8C15.2052 16.849 15.1034 16.8747 15 16.8747C14.8966 16.8747 14.7948 16.849 14.7038 16.8L7.5 12.9212V18.75C7.5 19.413 7.76339 20.0489 8.23223 20.5178C8.70107 20.9866 9.33696 21.25 10 21.25H20C20.663 21.25 21.2989 20.9866 21.7678 20.5178C22.2366 20.0489 22.5 19.413 22.5 18.75V12.9212Z" fill="#2C3B45"/>
</svg>
