<svg width="30" height="30" viewBox="0 0 30 30" fill="none" xmlns="http://www.w3.org/2000/svg">
<circle cx="15" cy="15" r="15" fill="#1E92E7"/>
<g clip-path="url(#clip0_23_204)">
<path d="M15 6.11108C13.2696 6.11253 11.61 6.79869 10.3838 8.01969C9.15758 9.2407 8.46437 10.8973 8.45557 12.6278C8.45557 15.2222 9.91112 17.3944 10.9778 18.9778L11.1722 19.2666C12.2335 20.8048 13.372 22.2881 14.5833 23.7111L15.0056 24.2055L15.4278 23.7111C16.639 22.288 17.7775 20.8046 18.8389 19.2666L19.0333 18.9722C20.0945 17.3889 21.55 15.2222 21.55 12.6278C21.5412 10.8964 20.8472 9.2389 19.6198 8.01773C18.3924 6.79657 16.7314 6.11106 15 6.11108ZM15 15.5555C14.2792 15.5555 13.5746 15.3418 12.9753 14.9413C12.3759 14.5409 11.9088 13.9717 11.633 13.3058C11.3571 12.6398 11.285 11.907 11.4256 11.2001C11.5662 10.4931 11.9133 9.84376 12.423 9.33407C12.9327 8.82439 13.5821 8.47729 14.289 8.33667C14.996 8.19604 15.7287 8.26822 16.3947 8.54406C17.0606 8.8199 17.6298 9.28701 18.0303 9.88634C18.4307 10.4857 18.6445 11.1903 18.6445 11.9111C18.6445 12.8777 18.2605 13.8046 17.577 14.4881C16.8936 15.1716 15.9666 15.5555 15 15.5555Z" fill="#2C3B45"/>
</g>
<defs>
<clipPath id="clip0_23_204">
<rect width="20" height="20" fill="white" transform="translate(5 5)"/>
</clipPath>
</defs>
</svg>
