<svg width="24" height="24" viewBox="0 0 24 24" fill="none" xmlns="http://www.w3.org/2000/svg">
<circle cx="12" cy="12" r="12" fill="#1E92E7"/>
<path d="M13.6567 15.003L14.7207 13.939C14.8641 13.7975 15.0454 13.7006 15.2427 13.6601C15.44 13.6196 15.6448 13.6373 15.8322 13.711L17.129 14.2287C17.3184 14.3056 17.4809 14.4369 17.5958 14.6059C17.7108 14.775 17.7731 14.9743 17.775 15.1787V17.5537C17.7739 17.6928 17.7447 17.8302 17.6891 17.9577C17.6334 18.0852 17.5526 18.2001 17.4514 18.2955C17.3503 18.3909 17.2308 18.4649 17.1003 18.5129C16.9698 18.5609 16.8309 18.582 16.692 18.575C7.60525 18.0097 5.77175 10.3147 5.425 7.36974C5.4089 7.22512 5.42361 7.07874 5.46815 6.94021C5.51269 6.80168 5.58606 6.67415 5.68343 6.56601C5.7808 6.45788 5.89996 6.37158 6.03307 6.31281C6.16619 6.25403 6.31024 6.2241 6.45575 6.22499H8.75C8.95473 6.2256 9.15459 6.28744 9.32389 6.40256C9.49319 6.51769 9.62417 6.68082 9.7 6.871L10.2177 8.16774C10.2939 8.35445 10.3133 8.55945 10.2736 8.75713C10.2339 8.95481 10.1368 9.13641 9.9945 9.27924L8.9305 10.3432C8.9305 10.3432 9.54325 14.49 13.6567 15.003Z" fill="#2C3B45"/>
</svg>
