<svg width="1754" height="700" viewBox="0 0 1754 700" fill="none" xmlns="http://www.w3.org/2000/svg">
<mask id="mask0_23_221" style="mask-type:alpha" maskUnits="userSpaceOnUse" x="-248" y="-105" width="2002" height="806">
<rect width="2002" height="804" transform="matrix(1 8.74228e-08 8.74228e-08 -1 -248 700)" fill="white"/>
</mask>
<g mask="url(#mask0_23_221)">
<g opacity="0.07">
<path d="M894.596 667.119C776.397 1245.69 1234.77 1889.51 1918.65 2105.01C2602.52 2320.51 3252.6 2025.97 3370.8 1447.4C3489 868.831 3030.62 225.009 2346.75 9.51142C1662.87 -205.986 1012.79 88.5477 894.596 667.119Z" stroke="white"/>
<path d="M790.277 634.247C672.078 1212.82 1130.45 1856.64 1814.33 2072.14C2498.2 2287.64 3148.28 1993.1 3266.48 1414.53C3384.68 835.959 2926.3 192.137 2242.43 -23.3608C1558.55 -238.859 908.475 55.6754 790.277 634.247Z" stroke="white"/>
<path d="M684.302 600.853C566.103 1179.42 1024.48 1823.25 1708.35 2038.74C2392.23 2254.24 3042.31 1959.71 3160.5 1381.14C3278.7 802.565 2820.33 158.743 2136.45 -56.7547C1452.58 -272.253 802.501 22.2815 684.302 600.853Z" stroke="white"/>
<path d="M579.983 567.981C461.785 1146.55 920.16 1790.37 1604.04 2005.87C2287.91 2221.37 2937.99 1926.84 3056.19 1348.26C3174.38 769.693 2716.01 125.871 2032.13 -89.6265C1348.26 -305.124 698.182 -10.5903 579.983 567.981Z" stroke="white"/>
</g>
</g>
</svg>
