<svg width="1193" height="664" viewBox="0 0 1193 664" fill="none" xmlns="http://www.w3.org/2000/svg">
<mask id="mask0_26_229" style="mask-type:alpha" maskUnits="userSpaceOnUse" x="-166" y="0" width="1355" height="656">
<rect width="1355" height="656" transform="matrix(1 0 0 -1 -166 656)" fill="white"/>
</mask>
<g mask="url(#mask0_26_229)">
<g opacity="0.07">
<path d="M853.876 55.2932C879.484 537.072 1389.87 944.121 1994.09 964.249C2598.31 984.376 3067.15 609.948 3041.55 128.169C3015.94 -353.61 2505.55 -760.659 1901.33 -780.787C1297.12 -800.914 828.268 -426.486 853.876 55.2932Z" stroke="white"/>
<path d="M761.706 52.2226C787.314 534.002 1297.7 941.05 1901.92 961.178C2506.14 981.306 2974.98 606.878 2949.38 125.099C2923.77 -356.681 2413.38 -763.729 1809.16 -783.857C1204.95 -803.985 736.098 -429.557 761.706 52.2226Z" stroke="white"/>
<path d="M668.073 49.1035C693.681 530.883 1204.07 937.931 1808.29 958.059C2412.5 978.187 2881.35 603.759 2855.74 121.979C2830.14 -359.8 2319.75 -766.848 1715.53 -786.976C1111.31 -807.104 642.465 -432.676 668.073 49.1035Z" stroke="white"/>
<path d="M575.903 46.0334C601.511 527.813 1111.9 934.861 1716.12 954.989C2320.33 975.117 2789.18 600.689 2763.57 118.909C2737.97 -362.87 2227.58 -769.918 1623.36 -790.046C1019.14 -810.174 550.295 -435.746 575.903 46.0334Z" stroke="white"/>
</g>
</g>
</svg>
